<?xml version="1.0" encoding="utf-8"?>
<!-- Generator: Adobe Illustrator 21.0.2, SVG Export Plug-In . SVG Version: 6.00 Build 0)  -->
<svg version="1.1" id="Capa_1" xmlns="http://www.w3.org/2000/svg" xmlns:xlink="http://www.w3.org/1999/xlink" x="0px" y="0px"
	 viewBox="0 0 512 512" style="enable-background:new 0 0 512 512;" xml:space="preserve">
<style type="text/css">
	.st0{fill:#FFFFFF;}
</style>
<g>
	<path class="st0" d="M353.4,327v28.1c0,48-35.1,87.7-80.9,95.6V479h24.8v33h-82.6v-33h24.8v-28.2c-45.8-7.9-80.8-47.6-80.8-95.6
		V327c0-9.1,7.4-16.5,16.5-16.5c9.1,0,16.5,7.4,16.5,16.5v28.1c0,35.4,28.8,64.2,64.3,64.2c35.5,0,64.3-28.8,64.3-64.2V327
		c0-9.1,7.4-16.5,16.5-16.5C346,310.5,353.4,317.9,353.4,327z M256,183.8c-27.4,0-49.5,22.1-49.5,49.6v113.7
		c0,27.3,22.2,49.6,49.5,49.6c27.4,0,49.6-22.2,49.6-49.6V233.4C305.6,205.9,283.4,183.8,256,183.8z M317.1,153.6
		c0-1.6-0.3-3.1-0.9-4.6c-10.1-24.4-33.7-40.2-60-40.3h-1c-26.4-0.2-50,15.2-60.5,39.4c-2.5,6,0.2,12.8,6.1,15.4
		c6,2.5,12.9-0.2,15.5-6.1c6.6-15.5,22-25.4,38.8-25.3h1c16.8,0.1,31.9,10.4,38.5,25.9c2.3,6,9.2,8.9,15.2,6.3
		C314.4,162.4,317,158.1,317.1,153.6z M343.7,118.9c3.5-2.2,5.5-6,5.5-9.9c0-2.1-0.6-4.3-1.8-6.3c-19.6-31.5-53.5-50.6-90.7-50.8h-1
		c-37.2-0.3-71.3,18.2-91.4,49.5c-3.5,5.4-2,12.7,3.5,16.2c5.4,3.5,12.7,2,16.2-3.5c15.8-24.5,42.5-38.9,71.5-38.7h1
		c29.1,0.2,55.7,15.1,71,39.7C330.9,120.6,338.1,122.3,343.7,118.9z M389.2,75.8c-28-47-77.4-75.4-132.1-75.8h-1
		c-54.7-0.4-104.5,27.2-133.2,73.9c-3.4,5.5-1.7,12.7,3.9,16.2c5.5,3.4,12.8,1.6,16.2-3.9c24.3-39.6,66.7-63.2,113.1-62.8h0.9
		c46.3,0.5,88.3,24.5,112.1,64.4c3.3,5.5,10.5,7.4,16.1,4c3.7-2.2,5.7-6.1,5.7-10C390.9,79.8,390.4,77.8,389.2,75.8z"/>
</g>
</svg>
